<svg viewBox="0 0 200 50" xmlns="http://www.w3.org/2000/svg">
  <defs>
		<linearGradient id="grad" gradientTransform="">
			<animateTransform 
				attributeName="gradientTransform"
				type="rotate"
				from="0 .5 .5"
				to="-360 .5 .5"
				dur="4s"
				repeatCount="indefinite"
			/>
			<stop offset="0%" stop-color="#1121" />
			<stop offset="100%"  stop-color="#16f" />
		</linearGradient>
    <pattern id="e" width="5" height="5" viewBox="0 0 15 20" patternUnits="userSpaceOnUse" style="transform-origin:center" fill="#16f5">
      <g fill="#16fb">
        <path d="M0 5c0 2 1 3 3 3s3-1 3-3-1-3-3-3-3 1-3 3m20 0c0 2 1 3 3 3s3-1 3-3-1-3-3-3-3 1-3 3M0 25c0 2 1 3 3 3s3-1 3-3-1-3-3-3-3 1-3 3m20 0c0 2 1 3 3 3s3-1 3-3-1-3-3-3-3 1-3 3" />
        <animateTransform attributeName="transform" type="translate" to="-20" dur="1s" id="b" begin="0s;a.end"/>
        <animateTransform attributeName="transform" type="translate" to="0 -20" dur="1s" id="a" begin="b.end"/>
      </g>
      <g>
        <path d="M-10-5c0 2 1 3 3 3s3-1 3-3-1-3-3-3-3 1-3 3m20 0c0 2 1 3 3 3s3-1 3-3-1-3-3-3-3 1-3 3m-20 20c0 2 1 3 3 3s3-1 3-3-1-3-3-3-3 1-3 3m20 0c0 2 1 3 3 3s3-1 3-3-1-3-3-3-3 1-3 3"/>
        <animateTransform attributeName="transform" type="translate" to="20" dur="1s" id="d" begin="0s;c.end"/>
        <animateTransform attributeName="transform" type="translate" to="0 20" dur="1s" id="c" begin="d.end"/>
      </g>
    </pattern>
  </defs>
  <path d="M0 0h200v50H0z" fill="url(#e)" />
	<path d="m60 25c-.2 3-.9 5.3-2.3 7.2c-1.4 1.7-3.1 2.6-5.4 2.6c-1 0-1.9-.3-2.7-.7c-.7-.4-1.3-1.1-1.6-1.8c-1.2 1.6-2.7 2.4-4.6 2.4c-1.7 0-3-.7-3.9-2.2c-1-1.4-1.3-3.3-1.1-5.7c.2-1.9.6-3.6 1.5-5.1c.7-1.5 1.7-2.7 2.9-3.5c1.1-.8 2.4-1.2 3.7-1.2c1.8 0 3.1.4 4.3 1.2l1.2.7-.9 10.1c-.1 1 0 1.7.2 2.2c.4.5.9.8 1.6.8c1.1 0 2-.7 2.7-2c.7-1.2 1.2-2.8 1.2-4.9c.2-4.1-.7-7.3-2.5-9.4c-1.8-2.2-4.5-3.3-8.2-3.3c-2.2 0-4.2.5-6 1.7c-1.8 1.1-3.2 2.8-4.2 4.9c-1 2.1-1.6 4.5-1.7 7.3c-.2 4.1.6 7.3 2.5 9.6c1.8 2.3 4.6 3.4 8.3 3.4c1 0 2-.1 3.1-.3c1-.2 2-.5 2.7-.9l.7 2.7c-.7.5-1.7.9-2.9 1.1c-1.3.3-2.5.5-3.7.5c-3.1 0-5.7-.6-7.9-1.9c-2.1-1.2-3.8-3.1-4.9-5.5c-1.1-2.5-1.5-5.3-1.3-8.7c0-3.2.8-6.1 2.2-8.7c1.3-2.6 3.1-4.6 5.4-6c2.3-1.4 4.9-2.1 7.8-2.1c2.9 0 5.4.7 7.6 1.9c2.1 1.3 3.7 3 4.8 5.4c1 2.4 1.5 5 1.4 8.2zm-17.7 1.8c-.2 1.6 0 2.7.4 3.5c.4.9 1.1 1.2 1.9 1.2c.6 0 1.2-.2 1.7-.7c.5-.5.9-1.2 1.3-2.1l.7-8.4c-.5-.1-1-.2-1.5-.2c-1.3 0-2.3.6-3.1 1.7c-.7 1.2-1.2 2.9-1.4 5zm31.4 2.4c0-.7-.3-1.2-1-1.5c-.5-.4-1.5-.7-2.9-1c-4.5-.9-6.8-2.9-6.8-5.7c0-1.8.7-3.2 2.1-4.3c1.4-1.1 3.2-1.6 5.5-1.6c2.5 0 4.4.5 5.8 1.6c1.4 1.1 2.2 2.6 2.2 4.5h-5.1c0-.7-.3-1.4-.7-1.9c-.5-.4-1.2-.6-2.2-.6c-.9 0-1.5.1-2 .5c-.4.4-.7.9-.7 1.5c0 .5.3 1 .8 1.4c.5.3 1.5.6 2.7.9c1.3.2 2.3.5 3.2.8c2.7 1 4.1 2.7 4.1 5.2c0 1.7-.8 3-2.3 4.2c-1.5 1-3.4 1.6-5.7 1.6c-1.6 0-3.1-.3-4.3-.9c-1.2-.6-2.2-1.4-2.9-2.4c-.8-1-1.1-2-1.1-3.2h4.8c.1 1 .4 1.7 1 2.2c.6.4 1.5.7 2.5.7c1 0 1.8-.2 2.3-.6c.5-.3.7-.8.7-1.4zm13.6 5.2h-5.1v-27h5.1v27zm15.2 0c-.3-.4-.4-1.1-.5-1.7c-1.3 1.3-2.8 2.1-4.8 2.1c-1.8 0-3.4-.6-4.6-1.6c-1.3-1.2-1.9-2.5-1.9-4.2c0-2 .8-3.5 2.3-4.6c1.5-1.1 3.6-1.6 6.5-1.6h2.3v-1.1c0-.9-.3-1.6-.7-2.1c-.4-.5-1.1-.8-2.1-.8c-.9 0-1.5.2-2 .6c-.5.4-.8 1-.8 1.7h-5c0-1.1.3-2.1 1-3c.6-1 1.6-1.8 2.8-2.3c1.3-.5 2.7-.7 4.2-.7c2.4 0 4.3.5 5.6 1.7c1.4 1.2 2.1 2.9 2.1 4.9v8.3c0 1.8.3 3.2.8 4.1v.3h-5.2zm-4.2-3.6c.7 0 1.4-.1 2.1-.5c.6-.3 1.1-.7 1.4-1.3v-3.2h-1.9c-2.5 0-3.9.9-4.1 2.6l0 .3c0 .6.2 1.1.7 1.6c.4.4 1 .5 1.8.5zm29.6-5.8c0 3-.7 5.3-2 7.1c-1.4 1.7-3.1 2.7-5.4 2.7c-1.9 0-3.5-.7-4.6-2v8.9h-5.1v-26.3h4.7l.2 1.8c1.2-1.5 2.8-2.1 4.8-2.1c2.4 0 4.2.8 5.5 2.6c1.2 1.6 1.9 4 1.9 7.1v.2zm-5.1-.3c0-1.7-.3-3.1-.9-4.1c-.7-.9-1.5-1.4-2.7-1.4c-1.7 0-2.7.5-3.3 1.8v7.8c.6 1.2 1.7 1.9 3.3 1.9c2.4 0 3.6-2 3.6-6zm15.2-3.6 3.2-5.7h5.5l-5.5 9.3 5.7 9.7h-5.4l-3.5-6-3.3 6h-5.5l5.7-9.7-5.4-9.3h5.4l3.1 5.7zm18.4 0 3.1-5.7h5.5l-5.5 9.3 5.7 9.7h-5.4l-3.4-6-3.4 6h-5.5l5.7-9.7-5.5-9.3h5.5l3.2 5.7zm16.4 13.3h-5.1v-19h5.1v19zm-5.4-24c0-.7.2-1.4.7-1.8c.5-.5 1.3-.7 2.2-.7c.8 0 1.5.2 2 .7c.5.4.8 1.1.8 1.8c0 .9-.3 1.5-.8 2c-.5.5-1.2.7-2 .7c-.9 0-1.6-.2-2.2-.7c-.5-.5-.7-1.1-.7-2z" stroke="none" fill="url(#grad)" stroke-linejoin="round" stroke-width=".5" />
</svg>
