<svg width="81" height="282" fill="none" xmlns="http://www.w3.org/2000/svg">
  <defs>
    <mask id="b">
      <path d="M0 0h81v282H0z" fill="#fff">
        <animate id="c" attributeName="d" values="M0 -282h81v282h-81z;M0 0h81v282h-81z" dur="1s" begin="0s;a.end+1s"/>
      </path>
    </mask>
  </defs>
  <g mask="url(#b)">
    <path stroke="#16F" stroke-width="2" d="M41 5v234"/>
    <circle cx="41" cy="5" r="5" fill="#16f"/>
    <circle cx="41" cy="239" r="5" fill="#16f"/>
    <path d="M0 268c0-14 0-14 14.3-14h52.4C81 254 81 254 81 268s0 14-14.3 14H14.3C0 282 0 282 0 268z" fill="#16F"/>
    <path d="M21.7 268.23h-3.58V272h-1.13v-8.53h5.29v.92h-4.16v2.92h3.58v.92zm4.26 3.89c-.86 0-1.56-.28-2.1-.85a3.15 3.15 0 01-.81-2.26v-.2c0-.63.12-1.2.36-1.69.24-.5.57-.88 1-1.16.44-.28.9-.42 1.41-.42.82 0 1.47.27 1.92.82.46.54.69 1.32.69 2.33v.45h-4.3c.02.63.2 1.13.55 1.52.35.38.8.57 1.33.57.39 0 .71-.08.98-.23.26-.16.5-.37.7-.62l.66.51a2.66 2.66 0 01-2.4 1.23zm-.14-5.69c-.44 0-.8.16-1.1.48-.3.32-.48.77-.55 1.34h3.17v-.08a2.05 2.05 0 00-.44-1.28c-.27-.3-.63-.46-1.08-.46zm5.34-2.3v1.53h1.18v.84h-1.18v3.93c0 .25.05.44.16.57.1.13.28.2.54.2.12 0 .3-.03.51-.08v.88c-.28.08-.56.12-.83.12-.49 0-.85-.15-1.1-.44-.24-.3-.37-.71-.37-1.25v-3.93h-1.15v-.84h1.15v-1.54h1.09zm5 7.1c.38 0 .72-.12 1.01-.35.29-.23.45-.53.48-.88h1.03c-.02.37-.15.71-.38 1.04a2.64 2.64 0 01-2.14 1.08c-.87 0-1.55-.29-2.07-.86a3.46 3.46 0 01-.76-2.37v-.18c0-.62.12-1.17.34-1.65.23-.48.55-.85.97-1.12.43-.26.93-.4 1.51-.4.71 0 1.3.22 1.77.64.47.43.72.98.76 1.66h-1.03a1.48 1.48 0 00-1.5-1.4c-.55 0-.98.2-1.28.6-.3.39-.45.96-.45 1.7v.21c0 .73.15 1.3.45 1.7.3.39.73.58 1.29.58zm4.82-4.8a2.3 2.3 0 011.87-.89c1.34 0 2.02.76 2.03 2.27V272H43.8v-4.2c0-.45-.11-.79-.32-1-.2-.23-.52-.34-.95-.34-.36 0-.66.1-.93.28-.27.2-.47.44-.62.74V272h-1.09v-9h1.09v3.43zm6.7 5.57H46.6v-6.34h1.08V272zm-1.17-8.02c0-.18.05-.33.16-.45.1-.12.27-.18.48-.18.2 0 .37.06.48.18.1.12.16.27.16.45 0 .17-.05.32-.16.44s-.27.17-.48.17c-.21 0-.37-.05-.48-.17a.63.63 0 01-.16-.44zm3.94 1.68l.03.8a2.33 2.33 0 011.9-.92c1.34 0 2.02.76 2.03 2.27V272h-1.09v-4.2c0-.45-.1-.79-.31-1-.2-.23-.52-.34-.96-.34-.35 0-.66.1-.92.28-.27.2-.48.44-.62.74V272h-1.09v-6.34h1.03zm5.34 3.12c0-1 .22-1.78.68-2.36a2.19 2.19 0 011.82-.88c.77 0 1.37.28 1.8.82l.06-.7h1v6.19c0 .82-.25 1.46-.74 1.94a2.7 2.7 0 01-1.96.7c-.46 0-.9-.1-1.34-.29a2.3 2.3 0 01-1-.8l.56-.65c.46.57 1.03.86 1.7.86.53 0 .94-.15 1.24-.44.3-.3.44-.72.44-1.26v-.54c-.43.5-1.02.75-1.77.75s-1.35-.3-1.8-.9a3.93 3.93 0 01-.7-2.44zm1.09.12c0 .72.14 1.28.43 1.69.3.4.7.6 1.23.6.69 0 1.2-.3 1.51-.92v-2.9a1.6 1.6 0 00-1.5-.9c-.52 0-.93.2-1.23.6a3.1 3.1 0 00-.45 1.83zm5.92 2.53a.7.7 0 01.17-.47.65.65 0 01.5-.19c.23 0 .4.07.5.2.12.12.18.27.18.46 0 .18-.06.33-.17.45-.12.12-.28.18-.5.18-.23 0-.4-.06-.51-.18a.65.65 0 01-.17-.45zm3.17 0c0-.19.05-.34.16-.47a.67.67 0 01.5-.19c.23 0 .4.07.51.2.12.12.18.27.18.46 0 .18-.06.33-.18.45-.11.12-.28.18-.5.18-.23 0-.4-.06-.5-.18a.65.65 0 01-.17-.45zm3.16 0a.7.7 0 01.17-.47.65.65 0 01.5-.19c.22 0 .4.07.5.2.12.12.18.27.18.46 0 .18-.06.33-.18.45-.1.12-.28.18-.5.18-.22 0-.39-.06-.5-.18a.65.65 0 01-.17-.45z" fill="#E8E8E8" class="path">
      <animate attributeType="CSS" attributeName="opacity" from="1" to="0" dur="2s" id="a" repeatCount="3" begin="c.end"/>
    </path>
  </g>
</svg>
